<svg id="Layer_1" data-name="Layer 1" xmlns="http://www.w3.org/2000/svg" viewBox="0 0 459.19 448.01"><title>favicon</title><path d="M251.52,29a45,45,0,0,0-44.8,44.8V227.93c-6.94-15-19.38-31.2-35-35.18-21.24-5.77-47.27,11.23-53.2,31-3,11-1,23.53,4.9,38.85,29.09,70,64.91,137.12,108.5,188.12a11.33,11.33,0,0,0,8.4,3.85h151.2a11.26,11.26,0,0,0,6.65-2.27c16.12-11.94,29.11-32.28,39.9-56.52A321.91,321.91,0,0,0,461.34,316c4.23-27.44,4.21-53.14-1.75-75.95-5.76-22-21.29-40.34-44.45-43a72.83,72.83,0,0,0-16.1,1.57c-2.87-6.87-6.9-12.73-11.9-16.27a40,40,0,0,0-23.8-7.7,32,32,0,0,0-18,6.3c-2.41-3.68-4.89-7.5-8.06-9.8a40.67,40.67,0,0,0-24.14-7.7,43.91,43.91,0,0,0-16.8,3.85V73.76c-.48-30-24.12-44.85-44.81-44.8Zm0,22.4a22.11,22.11,0,0,1,22.4,22.4v117.6a11.2,11.2,0,0,0,21.35,4.89c2.47-5.14,11.79-10.5,17.85-10.5a21.56,21.56,0,0,1,11,3.5c3.26,2.37,5.77,5.15,5.77,13.3a11.2,11.2,0,0,0,21.18,5.08c4.55-9.11,7-10.58,12.6-10.68a22.79,22.79,0,0,1,10.5,3.5c3.51,2.49,6.12,5.36,6.12,13.3a11.2,11.2,0,0,0,18.9,8.23c4.25-2.1,8.41-2.73,13.83-2.63,13.35,1.7,20.28,10.07,25,26.77,4.78,16.87,5,41,1.05,66.33a302.57,302.57,0,0,1-21.52,74.2c-9.27,20.83-20.62,37.09-30.63,45.5H245.75c-39.31-46.38-76.85-117.59-101.32-177.62-5.09-13.12-5.55-20.64-4.37-24.85,4.15-10.84,15.76-16.95,25.72-15.4,11.91,4.48,14.86,12.43,19.95,21.52L208,280.42a11.2,11.2,0,0,0,21.17-5.08V73.74a22.11,22.11,0,0,1,22.4-22.4Z" transform="translate(-5.12 -6.54)"/><path d="M5.12,68.17c.12-2.82.71-5.63,3.15-7.88l50.4-50.4a11.52,11.52,0,0,1,16-.24,11.64,11.64,0,0,1-.07,16L43.27,57H150.72a11.2,11.2,0,0,1,0,22.4H43.27l31.32,31.32a11.2,11.2,0,1,1-15.92,15.75L8.27,76a10.71,10.71,0,0,1-3.15-7.87Z" transform="translate(-5.12 -6.54)"/></svg>